<svg version="1.1" xmlns="http://www.w3.org/2000/svg" xmlns:xlink="http://www.w3.org/1999/xlink" width="24px" height="24px" viewBox="0,0,256,256"><g fill="#000000" fill-rule="nonzero" stroke="none" stroke-width="1" stroke-linecap="butt" stroke-linejoin="miter" stroke-miterlimit="10" stroke-dasharray="" stroke-dashoffset="0" font-family="none" font-weight="none" font-size="none" text-anchor="none" style="mix-blend-mode: normal"><path d="M0,256v-256h256v256z" id="bgRectangle"></path></g><g fill="#f2f2f2" fill-rule="nonzero" stroke="none" stroke-width="1" stroke-linecap="butt" stroke-linejoin="miter" stroke-miterlimit="10" stroke-dasharray="" stroke-dashoffset="0" font-family="none" font-weight="none" font-size="none" text-anchor="none" style="mix-blend-mode: normal"><g transform="translate(0,0.21309) scale(10.66667,10.66667)"><g><path d="M10,20h4c0,1.1 -0.9,2 -2,2c-1.1,0 -2,-0.9 -2,-2zM20,17.35v1.65h-16v-1.65l2,-1.88v-5.15c0,-2.92 1.56,-5.22 4,-5.98v-0.38c0,-1.42 1.49,-2.5 2.99,-1.76c0.65,0.32 1.01,1.03 1.01,1.76v0.39c2.44,0.75 4,3.06 4,5.98v5.15zM19,17.77l-2,-1.88v-5.47c0,-2.47 -1.19,-4.36 -3.13,-5.1c-1.26,-0.53 -2.64,-0.5 -3.84,0.03c-1.88,0.76 -3.03,2.64 -3.03,5.07v5.47l-2,1.88v0.23h14z"></path></g></g></g></svg>