<svg version="1.1" xmlns="http://www.w3.org/2000/svg" xmlns:xlink="http://www.w3.org/1999/xlink" width="256" height="256" viewBox="0,0,256,256"><g fill="#000000" fill-rule="nonzero" stroke="none" stroke-width="1" stroke-linecap="butt" stroke-linejoin="miter" stroke-miterlimit="10" stroke-dasharray="" stroke-dashoffset="0" font-family="none" font-weight="none" font-size="none" text-anchor="none" style="mix-blend-mode: normal"><path d="M0,256v-256h256v256z" id="bgRectangle"></path></g><g fill="#ffffff" fill-rule="nonzero" stroke="none" stroke-width="1" stroke-linecap="round" stroke-linejoin="miter" stroke-miterlimit="10" stroke-dasharray="" stroke-dashoffset="0" font-family="none" font-weight="none" font-size="none" text-anchor="none" style="mix-blend-mode: normal"><g transform="translate(0.1479,0.12475)"><g transform="translate(1.40659,1.40659) scale(2.81,2.81)"><path d="M29.722,90.007c-1.789,0 -3.588,-0.266 -5.35,-0.802c-4.689,-1.426 -8.552,-4.587 -10.878,-8.903c-4.518,-8.409 -1.74,-18.991 6.323,-24.094c1.283,-0.667 2.48,-1.35 3.715,-2.079c-1.047,-0.614 -2.045,-1.189 -3.07,-1.762c-4.949,-2.859 -7.99,-6.861 -8.806,-11.582c-1.085,-6.409 -1.087,-14.509 8.599,-20.335c7.856,-4.696 15.914,-9.297 23.707,-13.747c2.584,-1.475 5.169,-2.951 7.753,-4.435c5.097,-2.903 11.394,-3.018 16.853,-0.307c5.51,2.736 9.263,7.886 10.04,13.776c1.131,7.532 -2.631,15.056 -9.362,18.704c-1,0.565 -1.958,1.122 -2.892,1.679c0.212,0.126 0.42,0.252 0.626,0.376c0.733,0.442 1.44,0.867 2.162,1.275c5.543,3.12 9.042,8.417 9.599,14.53c0.549,6.04 -1.894,11.799 -6.702,15.8c-1.545,1.256 -3.291,2.239 -4.979,3.191c-0.5,0.281 -0.999,0.563 -1.492,0.851c-7.995,4.658 -17.48,10.163 -27.21,15.667c-2.704,1.458 -5.655,2.197 -8.636,2.197zM60.329,2.007c-2.663,0 -5.287,0.667 -7.622,1.997c-2.583,1.483 -5.169,2.96 -7.754,4.435c-7.785,4.446 -15.834,9.042 -23.67,13.726c-6.839,4.113 -9.129,9.581 -7.657,18.282c0.899,5.198 4.75,8.406 7.823,10.18c1.49,0.833 2.931,1.675 4.553,2.636c0.303,0.18 0.489,0.506 0.49,0.857c0.001,0.353 -0.184,0.68 -0.486,0.86c-1.806,1.083 -3.444,2.054 -5.196,2.96c-7.105,4.5 -9.579,13.925 -5.556,21.412c2.073,3.847 5.518,6.666 9.699,7.938c4.185,1.272 8.603,0.833 12.438,-1.231c9.702,-5.489 19.18,-10.99 27.169,-15.645c0.502,-0.292 1.01,-0.578 1.519,-0.864c1.615,-0.91 3.285,-1.851 4.69,-2.993c4.286,-3.567 6.47,-8.7 5.981,-14.075c-0.495,-5.448 -3.626,-10.175 -8.589,-12.969c-0.74,-0.418 -1.462,-0.853 -2.212,-1.304c-0.648,-0.391 -1.318,-0.794 -2.042,-1.211c-0.305,-0.176 -0.495,-0.5 -0.5,-0.852c-0.005,-0.352 0.176,-0.681 0.476,-0.866c1.405,-0.865 2.843,-1.712 4.396,-2.589c6.009,-3.257 9.359,-9.955 8.35,-16.675c-0.692,-5.246 -4.037,-9.824 -8.95,-12.264c-2.348,-1.164 -4.866,-1.745 -7.35,-1.745z"></path><path d="M36.55,59.249c-0.172,0 -0.345,-0.045 -0.5,-0.134c-0.31,-0.179 -0.501,-0.509 -0.501,-0.866v-26.122c0,-0.357 0.19,-0.687 0.5,-0.866c0.308,-0.179 0.69,-0.179 1,0l22.595,13.031c0.309,0.178 0.5,0.508 0.5,0.865c0,0.357 -0.189,0.687 -0.499,0.867l-22.594,13.09c-0.154,0.09 -0.327,0.135 -0.501,0.135zM37.55,33.858v22.655l19.597,-11.353z"></path></g></g></g></svg>